<?xml version="1.0" standalone="no"?>
<svg id="generated-svg" viewBox="0 0 100 100" xmlns="http://www.w3.org/2000/svg">
  <defs> 
    <linearGradient id="gradient" x1="0" x2="1" y1="1" y2="0">
      <stop stop-color="#f87537" offset="0%"></stop>
      <stop stop-color="#fba81f" offset="100%"></stop>
    </linearGradient>
  </defs>
  <path fill="url(#gradient)" 
        stroke="none" 
        stroke-width="0"
        d="M15.9,-33.2C22.2,-30.1,29.8,-30,35.3,-26.8C40.8,-23.5,44,-17.2,43.7,-10.8C43.3,-4.5,39.3,1.8,37.5,8.4C35.6,15,35.8,21.9,33.3,27.4C30.7,33,25.3,37.2,19.3,39C13.3,40.8,6.7,40.2,1.4,37.4C-3.9,34.6,-7.9,29.5,-13.7,27.6C-19.5,25.6,-27.2,26.7,-33,24.4C-38.7,22.1,-42.6,16.3,-43.5,10.2C-44.4,4,-42.5,-2.6,-38.1,-7.1C-33.8,-11.5,-27,-13.8,-23.1,-18.3C-19.3,-22.8,-18.3,-29.5,-15,-34.8C-11.6,-40.2,-5.8,-44.2,-0.5,-43.2C4.9,-42.3,9.7,-36.2,15.9,-33.2Z" 
        width="100%" 
        height="100%" 
        transform="translate(50 50)"/>
</svg>